<svg width="512" height="512" viewBox="0 0 512 512" fill="none" xmlns="http://www.w3.org/2000/svg">
<path d="M0 256C0 114.615 114.615 0 256 0C397.385 0 512 114.615 512 256C512 397.385 397.385 512 256 512C114.615 512 0 397.385 0 256Z" fill="white"/>
<path d="M138.182 134.323C100.354 156.34 72.7864 192.545 61.5436 234.971C50.3009 277.398 56.3038 322.571 78.2319 360.553L149.547 319.044C138.583 300.053 135.581 277.466 141.203 256.253C146.824 235.04 160.608 216.938 179.522 205.929C198.435 194.92 220.93 191.906 242.057 197.551C263.184 203.195 281.212 217.035 292.176 236.026L363.491 194.517C341.563 156.535 305.506 128.855 263.252 117.566C220.999 106.278 176.009 112.305 138.182 134.323Z" fill="#1E1E1E"/>
<path d="M373.818 377.677C411.646 355.66 439.214 319.455 450.456 277.029C461.699 234.602 455.696 189.429 433.768 151.447L362.453 192.956C373.417 211.947 376.419 234.534 370.797 255.747C365.176 276.96 351.392 295.062 332.478 306.071C313.565 317.08 291.07 320.094 269.943 314.449C248.816 308.805 230.788 294.965 219.824 275.974L148.509 317.483C170.437 355.465 206.494 383.145 248.748 394.434C291.001 405.722 335.991 399.695 373.818 377.677Z" fill="#008080"/>
</svg>
