<svg width="500" height="65" viewBox="0 0 500 65" fill="none" xmlns="http://www.w3.org/2000/svg">
<path d="M17.2581 4.65057C9.31431 9.23759 3.52514 16.7802 1.16416 25.619C-1.19682 34.4578 0.0638007 43.8689 4.6687 51.7819L19.6448 43.1342C17.3424 39.1777 16.7121 34.4722 17.8925 30.0527C19.073 25.6333 21.9676 21.862 25.9395 19.5685C29.9114 17.275 34.6353 16.6472 39.072 17.8231C43.5086 18.999 47.2946 21.8823 49.597 25.8388L64.5731 17.1911C59.9682 9.27815 52.3963 3.51145 43.523 1.15964C34.6497 -1.19217 25.202 0.063553 17.2581 4.65057Z" fill="#1E1E1E"/>
<path d="M66.7419 55.3494C74.6857 50.7624 80.4749 43.2198 82.8358 34.381C85.1968 25.5422 83.9362 16.1311 79.3313 8.21812L64.3552 16.8658C66.6576 20.8223 67.2879 25.5278 66.1075 29.9473C64.927 34.3667 62.0324 38.138 58.0605 40.4315C54.0886 42.725 49.3647 43.3528 44.928 42.1769C40.4914 41.001 36.7054 38.1177 34.403 34.1612L19.4268 42.8089C24.0317 50.7219 31.6037 56.4885 40.477 58.8404C49.3503 61.1922 58.798 59.9364 66.7419 55.3494Z" fill="#008080"/>
<path d="M101.3 50V42.6L116.85 22.35H102.2V14.5H129.3V21.9L113.25 42.15H130.05V50H101.3ZM133.659 50V23H143.359V50H133.659ZM133.509 20.3V13.5H143.509V20.3H133.509ZM149.187 50V23H157.887L158.187 29.3L157.487 28.9C157.853 27.5 158.403 26.3167 159.137 25.35C159.903 24.3833 160.803 23.65 161.837 23.15C162.903 22.65 164.053 22.4 165.287 22.4C167.487 22.4 169.253 23.0667 170.587 24.4C171.92 25.7 172.787 27.4333 173.187 29.6L172.187 29.7C172.52 28.1 173.07 26.7667 173.837 25.7C174.603 24.6 175.52 23.7833 176.587 23.25C177.687 22.6833 178.887 22.4 180.187 22.4C181.987 22.4 183.57 22.7833 184.937 23.55C186.303 24.3167 187.37 25.4667 188.137 27C188.937 28.5 189.337 30.3833 189.337 32.65V50H179.637V35.5C179.637 33.6 179.403 32.1833 178.937 31.25C178.503 30.3167 177.72 29.85 176.587 29.85C175.887 29.85 175.303 30.0667 174.837 30.5C174.403 30.9333 174.07 31.5833 173.837 32.45C173.603 33.2833 173.487 34.3 173.487 35.5V50H164.987V35.5C164.987 33.6 164.77 32.1833 164.337 31.25C163.903 30.3167 163.12 29.85 161.987 29.85C161.287 29.85 160.703 30.0667 160.237 30.5C159.803 30.9333 159.47 31.5833 159.237 32.45C159.003 33.2833 158.887 34.3 158.887 35.5V50H149.187Z" fill="#1E1E1E"/>
<path d="M205.932 50V14.5H218.982C224.949 14.5 229.532 16.05 232.732 19.15C235.932 22.2167 237.532 26.6 237.532 32.3C237.532 37.9667 235.949 42.3333 232.782 45.4C229.649 48.4667 225.149 50 219.282 50H205.932ZM215.732 42.15H218.982C221.949 42.15 224.099 41.35 225.432 39.75C226.799 38.15 227.482 35.65 227.482 32.25C227.482 28.85 226.799 26.35 225.432 24.75C224.099 23.15 221.949 22.35 218.982 22.35H215.732V42.15ZM255.698 50.6C252.798 50.6 250.265 50.0167 248.098 48.85C245.932 47.6833 244.248 46.05 243.048 43.95C241.848 41.8167 241.248 39.3333 241.248 36.5C241.248 33.6667 241.848 31.2 243.048 29.1C244.248 27 245.932 25.3667 248.098 24.2C250.265 23 252.798 22.4 255.698 22.4C258.598 22.4 261.098 23.0167 263.198 24.25C265.332 25.45 266.965 27.1667 268.098 29.4C269.232 31.6333 269.798 34.2667 269.798 37.3V39H251.248C251.315 40.6333 251.765 41.85 252.598 42.65C253.465 43.4167 254.565 43.8 255.898 43.8C256.865 43.8 257.682 43.6167 258.348 43.25C259.048 42.8833 259.548 42.2333 259.848 41.3L269.448 41.8C268.715 44.7 267.115 46.9 264.648 48.4C262.182 49.8667 259.198 50.6 255.698 50.6ZM251.248 33.8H260.098C260.065 32.2333 259.648 31.05 258.848 30.25C258.048 29.4167 256.998 29 255.698 29C254.465 29 253.432 29.4333 252.598 30.3C251.798 31.1667 251.348 32.3333 251.248 33.8ZM280.675 50L270.775 23H280.775L286.225 40.3L291.625 23H301.625L291.675 50H280.675ZM317.173 50.6C314.273 50.6 311.74 50.0167 309.573 48.85C307.406 47.6833 305.723 46.05 304.523 43.95C303.323 41.8167 302.723 39.3333 302.723 36.5C302.723 33.6667 303.323 31.2 304.523 29.1C305.723 27 307.406 25.3667 309.573 24.2C311.74 23 314.273 22.4 317.173 22.4C320.073 22.4 322.573 23.0167 324.673 24.25C326.806 25.45 328.44 27.1667 329.573 29.4C330.706 31.6333 331.273 34.2667 331.273 37.3V39H312.723C312.79 40.6333 313.24 41.85 314.073 42.65C314.94 43.4167 316.04 43.8 317.373 43.8C318.34 43.8 319.156 43.6167 319.823 43.25C320.523 42.8833 321.023 42.2333 321.323 41.3L330.923 41.8C330.19 44.7 328.59 46.9 326.123 48.4C323.656 49.8667 320.673 50.6 317.173 50.6ZM312.723 33.8H321.573C321.54 32.2333 321.123 31.05 320.323 30.25C319.523 29.4167 318.473 29 317.173 29C315.94 29 314.906 29.4333 314.073 30.3C313.273 31.1667 312.823 32.3333 312.723 33.8ZM343.617 50C341.017 50 339.001 49.35 337.567 48.05C336.134 46.75 335.417 44.6333 335.417 41.7V14.5H345.117V40.6C345.117 41.5333 345.334 42.2 345.767 42.6C346.201 42.9667 346.817 43.15 347.617 43.15H349.067V50H343.617ZM365.37 50.6C362.437 50.6 359.87 50.0167 357.67 48.85C355.503 47.6833 353.803 46.05 352.57 43.95C351.37 41.8167 350.77 39.3333 350.77 36.5C350.77 33.6667 351.37 31.2 352.57 29.1C353.803 27 355.503 25.3667 357.67 24.2C359.87 23 362.437 22.4 365.37 22.4C368.303 22.4 370.853 23 373.02 24.2C375.22 25.3667 376.92 27 378.12 29.1C379.353 31.2 379.97 33.6667 379.97 36.5C379.97 39.3333 379.353 41.8167 378.12 43.95C376.92 46.05 375.22 47.6833 373.02 48.85C370.853 50.0167 368.303 50.6 365.37 50.6ZM365.37 43.65C366.87 43.65 368.02 43.0333 368.82 41.8C369.62 40.5667 370.02 38.8 370.02 36.5C370.02 34.2333 369.62 32.4833 368.82 31.25C368.02 29.9833 366.87 29.35 365.37 29.35C363.87 29.35 362.72 29.9833 361.92 31.25C361.12 32.4833 360.72 34.2333 360.72 36.5C360.72 38.8 361.12 40.5667 361.92 41.8C362.72 43.0333 363.87 43.65 365.37 43.65ZM383.904 57.5V23H393.354L393.554 28.65L392.904 28.4C393.57 26.4667 394.637 24.9833 396.104 23.95C397.57 22.9167 399.304 22.4 401.304 22.4C403.704 22.4 405.737 23 407.404 24.2C409.07 25.4 410.337 27.0667 411.204 29.2C412.07 31.3 412.504 33.7333 412.504 36.5C412.504 39.2333 412.054 41.6667 411.154 43.8C410.287 45.9333 409.004 47.6 407.304 48.8C405.637 50 403.604 50.6 401.204 50.6C399.937 50.6 398.754 50.3667 397.654 49.9C396.554 49.4 395.587 48.7 394.754 47.8C393.954 46.9 393.354 45.8333 392.954 44.6L393.604 44.4V57.5H383.904ZM398.054 43.65C399.454 43.65 400.554 43.0167 401.354 41.75C402.154 40.45 402.554 38.7 402.554 36.5C402.554 34.3 402.154 32.5667 401.354 31.3C400.554 30 399.454 29.35 398.054 29.35C397.12 29.35 396.32 29.6167 395.654 30.15C394.987 30.6833 394.47 31.4833 394.104 32.55C393.77 33.6167 393.604 34.9333 393.604 36.5C393.604 38.0667 393.77 39.3833 394.104 40.45C394.47 41.5167 394.987 42.3167 395.654 42.85C396.32 43.3833 397.12 43.65 398.054 43.65ZM429.673 50.6C426.773 50.6 424.24 50.0167 422.073 48.85C419.906 47.6833 418.223 46.05 417.023 43.95C415.823 41.8167 415.223 39.3333 415.223 36.5C415.223 33.6667 415.823 31.2 417.023 29.1C418.223 27 419.906 25.3667 422.073 24.2C424.24 23 426.773 22.4 429.673 22.4C432.573 22.4 435.073 23.0167 437.173 24.25C439.306 25.45 440.94 27.1667 442.073 29.4C443.206 31.6333 443.773 34.2667 443.773 37.3V39H425.223C425.29 40.6333 425.74 41.85 426.573 42.65C427.44 43.4167 428.54 43.8 429.873 43.8C430.84 43.8 431.656 43.6167 432.323 43.25C433.023 42.8833 433.523 42.2333 433.823 41.3L443.423 41.8C442.69 44.7 441.09 46.9 438.623 48.4C436.156 49.8667 433.173 50.6 429.673 50.6ZM425.223 33.8H434.073C434.04 32.2333 433.623 31.05 432.823 30.25C432.023 29.4167 430.973 29 429.673 29C428.44 29 427.406 29.4333 426.573 30.3C425.773 31.1667 425.323 32.3333 425.223 33.8ZM447.673 50V23H457.073L457.373 31.5L456.673 31.4C457.173 28.4 457.973 26.25 459.073 24.95C460.173 23.65 461.723 23 463.723 23H466.023V30.7H463.623C462.19 30.7 461.006 30.85 460.073 31.15C459.173 31.4167 458.49 31.9 458.023 32.6C457.59 33.3 457.373 34.2833 457.373 35.55V50H447.673ZM481.075 50.6C478.042 50.6 475.525 50.2167 473.525 49.45C471.525 48.65 470.008 47.5667 468.975 46.2C467.942 44.8333 467.358 43.2667 467.225 41.5L476.975 41.25C477.175 42.3167 477.608 43.1167 478.275 43.65C478.942 44.15 479.892 44.4 481.125 44.4C482.158 44.4 482.925 44.2333 483.425 43.9C483.958 43.5667 484.225 43.0833 484.225 42.45C484.225 41.9833 484.108 41.6 483.875 41.3C483.642 40.9667 483.192 40.6833 482.525 40.45C481.892 40.2167 480.942 40 479.675 39.8C476.642 39.3 474.258 38.7167 472.525 38.05C470.825 37.3833 469.625 36.5167 468.925 35.45C468.225 34.35 467.875 32.9667 467.875 31.3C467.875 28.6 468.958 26.45 471.125 24.85C473.292 23.2167 476.608 22.4 481.075 22.4C483.842 22.4 486.158 22.8 488.025 23.6C489.892 24.4 491.325 25.5333 492.325 27C493.358 28.4333 493.975 30.1333 494.175 32.1L484.575 32.4C484.508 31.5667 484.308 30.8667 483.975 30.3C483.675 29.7333 483.275 29.3167 482.775 29.05C482.275 28.75 481.675 28.6 480.975 28.6C480.042 28.6 479.275 28.8167 478.675 29.25C478.108 29.65 477.825 30.2333 477.825 31C477.825 31.5 477.942 31.9167 478.175 32.25C478.442 32.5833 478.875 32.85 479.475 33.05C480.075 33.25 480.875 33.4167 481.875 33.55C484.842 33.9167 487.225 34.4667 489.025 35.2C490.825 35.9333 492.125 36.8833 492.925 38.05C493.758 39.1833 494.175 40.5667 494.175 42.2C494.175 44 493.658 45.5333 492.625 46.8C491.592 48.0333 490.092 48.9833 488.125 49.65C486.192 50.2833 483.842 50.6 481.075 50.6Z" fill="#008080"/>
</svg>
